HIERARCHY
ROOT Hips
{
	OFFSET -3.958830 18.904000 13.208200
	CHANNELS 6 Xposition Yposition Zposition Zrotation Yrotation Xrotation 
	JOINT LHipJoint
	{
		OFFSET 0.000000 0.000000 0.000000
		CHANNELS 3 Zrotation Yrotation Xrotation
		JOINT LeftUpLeg
		{
			OFFSET 1.800000 -1.400000 0.085000
			CHANNELS 3 Zrotation Yrotation Xrotation
			JOINT LeftLeg
			{
				OFFSET 2.215000 -6.000000 0.000000
				CHANNELS 3 Zrotation Yrotation Xrotation
				JOINT LeftFoot
				{
					OFFSET 2.500000 -6.900000 0.000000
					CHANNELS 3 Zrotation Yrotation Xrotation
					JOINT LeftToeBase
					{
						OFFSET 0.200000 -0.500000 1.950000
						CHANNELS 3 Zrotation Yrotation Xrotation
						End Site
						{
							OFFSET 0.000000 0.000000 0.000000
						}
					}
				}
			}
		}
	}
	JOINT RHipJoint
	{
		OFFSET 0.000000 0.000000 0.000000
		CHANNELS 3 Zrotation Yrotation Xrotation
		JOINT RightUpLeg
		{
			OFFSET -1.800000 -1.400000 0.085000
			CHANNELS 3 Zrotation Yrotation Xrotation
			JOINT RightLeg
			{
				OFFSET -2.215000 -6.000000 0.000000
				CHANNELS 3 Zrotation Yrotation Xrotation
				JOINT RightFoot
				{
					OFFSET -2.500000 -6.900000 0.000000
					CHANNELS 3 Zrotation Yrotation Xrotation
					JOINT RightToeBase
					{
						OFFSET -0.200000 -0.500000 1.950000
						CHANNELS 3 Zrotation Yrotation Xrotation
						End Site
						{
							OFFSET 0.000000 0.000000 0.000000
						}
					}
				}
			}
		}
	}
	JOINT LowerBack
	{
		OFFSET 0.000000 0.000000 0.000000
		CHANNELS 3 Zrotation Yrotation Xrotation
		JOINT Spine
		{
			OFFSET -0.087000 1.940000 -0.288900
			CHANNELS 3 Zrotation Yrotation Xrotation
			JOINT Spine1
			{
				OFFSET 0.000000 1.950000 0.060000
				CHANNELS 3 Zrotation Yrotation Xrotation
				JOINT Neck
				{
					OFFSET 0.000000 0.000000 0.000000
					CHANNELS 3 Zrotation Yrotation Xrotation
					JOINT Neck1
					{
						OFFSET 0.000000 1.600000 0.340000
						CHANNELS 3 Zrotation Yrotation Xrotation
						JOINT Head
						{
							OFFSET 0.000000 1.667000 -0.240000
							CHANNELS 3 Zrotation Yrotation Xrotation
							End Site
							{
								OFFSET 0.000000 0.000000 0.000000
							}
						}
					}
				}
				JOINT LeftShoulder
				{
					OFFSET 0.000000 0.000000 0.000000
					CHANNELS 3 Zrotation Yrotation Xrotation
					JOINT LeftArm
					{
						OFFSET 2.700000 1.550000 -0.730000
						CHANNELS 3 Zrotation Yrotation Xrotation
						JOINT LeftForeArm
						{
							OFFSET 5.450000 0.000000 0.000000
							CHANNELS 3 Zrotation Yrotation Xrotation
							JOINT LeftHand
							{
								OFFSET 3.450000 0.000000 0.000000
								CHANNELS 3 Zrotation Yrotation Xrotation
								JOINT LeftHandIndex1
								{
									OFFSET 0.750000 0.000000 0.000000
									CHANNELS 3 Zrotation Yrotation Xrotation
									End Site
									{
										OFFSET 0.000000 0.000000 0.000000
									}
								}
							}
						}
					}
				}
				JOINT RightShoulder
				{
					OFFSET 0.000000 0.000000 0.000000
					CHANNELS 3 Zrotation Yrotation Xrotation
					JOINT RightArm
					{
						OFFSET -2.700000 1.550000 -0.730000
						CHANNELS 3 Zrotation Yrotation Xrotation
						JOINT RightForeArm
						{
							OFFSET -5.450000 0.000000 0.000000
							CHANNELS 3 Zrotation Yrotation Xrotation
							JOINT RightHand
							{
								OFFSET -3.450000 0.000000 0.000000
								CHANNELS 3 Zrotation Yrotation Xrotation
								JOINT RightHandIndex1
								{
									OFFSET -0.750000 0.000000 0.000000
									CHANNELS 3 Zrotation Yrotation Xrotation
									End Site
									{
										OFFSET 0.000000 0.000000 0.000000
									}
								}
							}
						}
					}
				}
			}
		}
	}
}
MOTION
Frames: 12
Frame Time: 0.016667
-0.707350 16.794400 -3.862310 -3.730927 -42.275776 -2.423165 -15.177276 14.268355 2.920938 8.877887 0.140007 -0.254332 -8.936833 7.463438 13.879645 -0.186008 5.329178 2.693631 0.620760 0.557790 0.524360 18.208123 -10.099940 2.853325 -9.458122 2.199900 -29.194075 9.045346 -9.568016 33.059134 -0.567488 -4.917170 2.440618 0.340960 -0.052790 0.260570 -3.317617 -4.332362 -7.352600 12.459958 -9.298558 19.125531 -7.821339 -7.693614 15.522985 4.008629 -7.246688 -12.542742 -18.461102 18.039514 36.214342 -8.732840 12.629240 -18.841670 -7.957336 -15.942270 5.064539 -45.494075 -25.358661 2.123348 30.080112 -10.316898 -5.358126 -3.738416 2.993563 0.523630 0.012100 0.304380 0.142240 0.121101 17.777090 8.074007 37.389720 14.447661 -5.120882 142.625825 62.686452 103.533751 2.087579 -1.403943 -0.051890 0.188920 -0.159010 -0.183970 
-0.782980 16.769080 -3.835510 -3.051579 -40.901653 -1.037090 -15.167282 14.173519 2.895526 8.677124 0.037557 -1.547076 -9.188486 7.328534 13.321173 -0.217200 5.257459 2.751574 0.546730 0.466100 0.431740 18.224003 -10.087069 2.893207 -10.389215 2.147183 -29.302723 10.511503 -9.641721 30.933594 -0.475139 -4.820727 2.495234 0.316090 0.056970 0.260150 -3.400301 -4.180866 -7.285464 13.173316 -9.117824 17.463819 -8.214461 -7.610679 13.719053 4.098647 -7.986523 -12.006640 -18.945777 18.156954 32.719203 -7.832010 12.534590 -15.987610 -8.032102 -11.775768 4.175237 -46.950662 -22.048371 1.177762 30.912254 -14.644812 -6.321371 -3.783582 2.970773 0.467370 0.084030 0.208980 0.155660 0.049781 14.537743 7.797902 36.407580 12.650965 -2.214384 147.544374 58.926337 107.638113 1.990905 -1.700498 -0.092700 0.196900 -0.110560 -0.162920 
-0.843310 16.756680 -3.811090 -2.609346 -39.425844 0.443987 -15.136935 14.056062 2.864527 8.567888 -0.126119 -3.051970 -9.450703 7.225714 13.002109 -0.240134 5.170813 2.814715 0.474160 0.388150 0.342490 18.254427 -10.090520 2.967211 -11.187112 2.190664 -29.563054 11.934504 -9.692403 29.050410 -0.396285 -4.753789 2.543494 0.295190 0.160470 0.245120 -3.531392 -3.942211 -7.235745 14.309841 -8.982935 16.298631 -8.642163 -7.581239 11.765326 4.176437 -8.668034 -11.550221 -19.320245 18.184175 29.402421 -6.971140 12.312340 -13.510690 -8.883593 -8.031835 3.388434 -46.855380 -17.857609 -0.424010 30.526507 -20.957887 -7.423654 -3.804026 2.921068 0.407680 0.146290 0.121520 0.171010 0.807793 11.645546 7.633795 34.179877 10.365529 0.276674 154.710266 54.711361 115.937484 1.913164 -1.938117 -0.132150 0.217850 -0.071200 -0.135880 
-0.898210 16.750680 -3.787330 -2.259941 -38.463098 1.862581 -15.103765 13.899734 2.844706 8.439321 -0.193753 -3.991736 -9.789452 7.055465 12.049278 -0.262514 5.079845 2.878752 0.420420 0.340040 0.259820 18.297117 -10.097393 3.037426 -11.718277 2.357762 -29.965017 12.909972 -9.570056 27.472170 -0.322583 -4.683170 2.592963 0.293160 0.258660 0.230620 -3.700823 -3.628732 -7.172971 15.675951 -8.774874 15.314952 -9.334004 -7.511249 10.057758 4.086723 -9.445046 -11.142095 -20.068545 18.439777 25.942277 -6.076990 11.933730 -11.434830 -9.389783 -4.382377 2.452689 -46.607075 -14.276082 -1.489467 31.269964 -24.443266 -7.961395 -3.853067 2.899043 0.342740 0.208360 0.039010 0.189730 1.544497 8.779573 7.716162 32.136079 7.779051 2.685496 164.670708 49.721504 130.898162 1.845258 -2.145670 -0.163920 0.243540 -0.037340 -0.105710 
-0.950070 16.751940 -3.763520 -2.323685 -37.508800 3.476828 -15.056051 13.741694 2.818680 8.361061 -0.275738 -4.805933 -9.697664 6.709124 10.839530 -0.290882 4.919250 2.954245 0.398320 0.325030 0.210490 18.350833 -10.132568 3.100829 -11.835539 2.562378 -30.143534 13.755444 -9.319068 25.676890 -0.270243 -4.558966 2.646132 0.300140 0.320980 0.236100 -3.899200 -3.257160 -7.103431 17.598571 -8.789787 14.445618 -10.501524 -7.588429 8.435734 4.146477 -10.034541 -10.753525 -20.556582 18.799292 23.074691 -5.533950 11.921490 -9.989290 -9.504209 -1.142977 1.608600 -46.340016 -10.924205 -2.317423 33.146241 -25.357699 -8.102616 -3.906756 2.918442 0.291530 0.254190 -0.009950 0.208550 1.554028 6.061312 7.760325 30.681384 5.362700 4.590909 170.035429 45.186088 140.147969 1.831582 -2.302121 -0.173020 0.244960 -0.024010 -0.081260 
-0.992280 16.762130 -3.748240 -2.150743 -36.037704 4.693585 -15.017796 13.631785 2.815661 8.128699 -0.361826 -5.498528 -9.358310 6.264060 9.391430 -0.327873 4.735803 3.043526 0.361740 0.294310 0.150520 18.389384 -10.157070 3.132657 -12.243754 2.523913 -29.875665 14.682024 -8.996429 23.409680 -0.212656 -4.398098 2.722534 0.299750 0.385250 0.219360 -4.022966 -3.016579 -7.072621 18.900867 -8.973788 13.999617 -11.349668 -7.853051 6.586332 4.121799 -10.490904 -10.379629 -21.023481 19.089455 21.027644 -4.486930 11.691960 -8.692990 -9.368396 1.929040 0.692854 -46.319549 -8.185190 -2.867435 36.149797 -24.064906 -7.923654 -3.968450 2.921675 0.260290 0.286550 -0.059850 0.223520 1.476641 3.391310 7.920266 29.896496 2.452724 5.649075 174.151301 41.734070 149.147074 1.836013 -2.383335 -0.200250 0.268980 -0.001980 -0.061040 
-1.030240 16.771980 -3.734420 -2.036355 -33.849098 6.219149 -14.975605 13.508802 2.803443 7.996160 -0.586826 -6.810008 -9.002345 5.839136 8.249079 -0.362194 4.529463 3.131281 0.337910 0.280930 0.111080 18.433825 -10.180711 3.152366 -12.477329 2.416890 -29.524414 15.413995 -8.498657 20.681002 -0.151168 -4.183686 2.819471 0.304210 0.439950 0.209000 -4.147987 -2.764048 -7.029127 20.488269 -9.286142 12.987633 -12.238298 -8.217799 4.721567 4.024938 -10.752728 -9.775196 -21.094856 19.200049 19.460334 -3.659190 11.734340 -7.225360 -9.089130 4.981376 -0.218217 -45.717604 -5.576365 -3.438502 37.287406 -23.736417 -7.600246 -4.031011 2.927041 0.214130 0.325360 -0.104430 0.236050 1.314503 0.494150 7.806690 28.230912 -0.749771 6.425463 174.636971 39.311889 150.561411 1.849525 -2.467872 -0.213140 0.280220 0.006560 -0.042180 
-1.061770 16.779100 -3.727150 -1.738798 -31.251870 7.456889 -14.934296 13.385042 2.780524 7.737572 -0.845707 -8.214951 -8.506505 5.442692 7.520892 -0.415198 4.326189 3.212303 0.334700 0.276640 0.102670 18.477935 -10.216263 3.165337 -12.835702 2.232821 -28.924701 15.972233 -7.913178 17.805048 -0.113184 -3.981346 2.899484 0.314020 0.468120 0.207820 -4.260726 -2.492496 -6.991051 21.698781 -9.433921 11.868141 -12.799373 -8.393832 3.364391 3.771871 -10.787038 -8.933596 -20.664835 18.610194 18.721577 -3.360100 11.533770 -6.634520 -9.085073 7.764979 -1.296156 -44.297941 -3.584869 -4.123758 36.401986 -24.374389 -7.315198 -4.069380 2.917689 0.197300 0.347230 -0.126010 0.247040 1.639132 -2.349724 7.643453 26.919089 -4.377695 6.659205 174.363985 37.606893 149.755401 1.863968 -2.538484 -0.226310 0.286730 0.004010 -0.038130 
-1.095280 16.783120 -3.714430 -1.410414 -28.599583 8.560548 -14.908312 13.278215 2.760847 7.534397 -1.082033 -9.440736 -8.013805 5.113347 6.907469 -0.463690 4.171064 3.279407 0.307490 0.242630 0.087680 18.507736 -10.230450 3.176828 -13.148819 2.112190 -28.026197 16.360779 -7.240070 14.864455 -0.070046 -3.811977 2.976870 0.308820 0.504590 0.208390 -4.326674 -2.280147 -6.973435 22.388399 -9.454997 10.773088 -12.770490 -8.409215 2.271693 3.605034 -10.580028 -8.053540 -19.731986 17.945544 18.135211 -3.559480 11.676960 -5.955240 -9.550181 10.072358 -2.212074 -42.261487 -1.193766 -5.044046 34.075184 -26.046331 -7.070045 -4.115706 2.898451 0.177080 0.383590 -0.158950 0.244950 2.263239 -4.849034 7.406380 25.606168 -7.672911 6.244918 176.961703 36.356433 156.997415 1.870997 -2.567179 -0.248410 0.290430 0.016570 -0.042310 
-1.125510 16.793030 -3.708970 -1.000089 -26.706626 9.003850 -14.884279 13.186777 2.753017 7.412675 -1.226152 -10.073280 -7.903229 4.968743 6.655242 -0.489947 4.083700 3.308068 0.306900 0.238370 0.108090 18.532709 -10.269614 3.172291 -13.343838 2.044761 -27.072401 16.205123 -6.641237 12.713160 -0.058101 -3.669385 3.036495 0.307580 0.492780 0.208360 -4.390158 -2.062534 -6.971593 22.432037 -9.159561 10.174459 -12.595141 -8.032910 2.186383 3.406524 -10.044665 -7.329013 -18.310673 16.920563 18.596651 -4.083360 11.928250 -6.334910 -10.932747 10.858551 -2.661848 -39.126375 1.489138 -6.228858 32.403163 -28.474232 -7.288528 -4.107537 2.884405 0.186250 0.387150 -0.152140 0.238240 3.871038 -6.157815 7.091297 25.023101 -10.851767 5.123930 176.626885 36.689908 155.172142 1.879090 -2.571454 -0.255930 0.285970 0.008690 -0.057890 
-1.148610 16.800880 -3.705920 -0.610065 -25.452005 9.563771 -14.871128 13.140270 2.763552 7.172084 -1.399301 -10.824920 -7.869598 4.886174 6.690694 -0.486451 4.001884 3.336273 0.294160 0.225280 0.103980 18.542402 -10.284023 3.185734 -13.295390 2.117621 -26.622979 15.687665 -6.052951 11.090816 -0.035903 -3.523759 3.100032 0.292930 0.495680 0.215680 -4.409441 -1.952425 -7.001193 22.011088 -9.083223 10.202875 -12.100157 -7.825327 1.235857 3.249642 -9.530169 -6.698779 -17.022663 16.548470 18.504839 -4.109800 12.520120 -6.043610 -12.482033 11.617444 -2.894832 -36.195435 5.124062 -7.271426 31.236368 -29.945521 -7.219253 -4.111777 2.911599 0.175740 0.397510 -0.155200 0.238100 5.632811 -7.316041 6.694360 25.118616 -13.141179 4.140316 179.651020 36.122677 163.542650 1.895520 -2.567672 -0.251410 0.265780 0.003590 -0.057580 
-1.165450 16.810340 -3.697360 -0.552097 -23.676634 9.991555 -14.856734 13.112046 2.758476 7.223972 -1.539234 -11.471358 -7.643797 4.817024 6.884245 -0.487310 3.926927 3.353053 0.281310 0.198620 0.121360 18.548498 -10.300088 3.203969 -13.069769 2.173553 -25.571214 15.383180 -5.484565 9.087832 -0.029997 -3.406418 3.152240 0.264230 0.468820 0.225270 -4.419739 -1.863987 -7.049096 21.933315 -8.455675 10.221175 -11.525296 -7.045136 0.712691 3.357497 -8.716971 -6.144146 -15.244707 14.862814 19.312425 -4.889140 12.477360 -6.183140 -13.833570 12.166931 -3.652228 -33.612337 6.303351 -7.772512 29.358526 -30.210890 -6.846349 -4.116472 2.928433 0.182800 0.392610 -0.146080 0.221320 6.630173 -8.481811 6.844975 26.471581 -17.229097 2.560834 -179.006674 36.297252 166.008360 1.909746 -2.571226 -0.242380 0.232150 -0.001060 -0.072190 
